<svg xmlns="http://www.w3.org/2000/svg" fill="none" viewBox="0 0 283 64"><path fill="black" d="m141.04 16 c-11.04 0-19 7.95-19 18s8.96 18 20 18c6.67 0 12.55-2.64 16.19-7.09l-7.65-4.42c-2.02 2.21-5.09 3.5-8.54 3.5-4.79 0-8.86-2.5-10.37-6.5h28.02c.22-1.12.35-2.28.35-3.5 0-10.05-8.96-18-20-18zm-19.58 15.5c1.25-3.99 4.67-6.5 9.58-6.5 4.9 0 8.33 2.51 9.58 6.5h-19.16z"/><path fill="black" d="M248.72 16c-11.04 0-19 7.95-19 18s8.96 18 20 18c6.67 0 12.55-2.64 16.19-7.09l-7.65-4.42c-2.02 2.21-5.09 3.5-8.54 3.5-4.79 0-8.86-2.5-10.37-6.5h28.02c.22-1.12.35-2.28.35-3.5 0-10.05-8.96-18-20-18zm-19.58 15.5c1.25-3.99 4.67-6.5 9.58-6.5 4.9 0 8.33 2.51 9.58 6.5h-19.16z"/><path fill="black" d="M200.24 34c0 6 3.92 10 10 10 4.12 0 7.21-1.87 8.8-4.92l7.68 4.43c-3.18 5.3-9.14 8.49-16.48 8.49-11.05 0-19-7.95-19-18s7.95-18 19-18c7.34 0 13.29 3.19 16.48 8.49l-7.68 4.43c-1.59-3.05-4.68-4.92-8.8-4.92-6.07 0-10 4-10 10z"/><path fill="black" d="m141.04 16 c-11.04 0-19 7.95-19 18s8.96 18 20 18c6.67 0 12.55-2.64 16.19-7.09l-7.65-4.42c-2.02 2.21-5.09 3.5-8.54 3.5-4.79 0-8.86-2.5-10.37-6.5h28.02c.22-1.12.35-2.28.35-3.5 0-10.05-8.96-18-20-18zm-19.58 15.5c1.25-3.99 4.67-6.5 9.58-6.5 4.9 0 8.33 2.51 9.58 6.5h-19.16z"/></svg>
